<?xml version="1.0" standalone="no"?> <!DOCTYPE svg PUBLIC "-//W3C//DTD SVG 1.0//EN" "http://www.w3.org/TR/2001/REC-SVG-20010904/DTD/svg10.dtd" > <svg xmlns="http://www.w3.org/2000/svg" width="100%" height="100%">
<defs >
<font id="PTSans-Narrow" horiz-adv-x="841" ><font-face
    font-family="PT Sans Narrow"
    units-per-em="2048"
    panose-1="2 11 5 6 2 2 3 2 2 4"
    ascent="1782"
    descent="-471"
    alphabetic="0" />
<missing-glyph horiz-adv-x="1024" d="M102 0V1092H922V0H102ZM205 102H819V989H205V102Z" />
<glyph unicode=" " glyph-name="space" horiz-adv-x="434" />
<glyph unicode="!" glyph-name="exclam" horiz-adv-x="505" d="M207 1434H360V723L330 362H238L207 723V1434ZM180 92Q180 149 208 178T283 207T357 179T385 92Q385 33 358 4T283 -25T208 4T180 92Z" />
<glyph unicode="&quot;" glyph-name="quotedbl" horiz-adv-x="585" d="M362 1434H504L451 1038H362V1434ZM147 1434H289L236 1038H147V1434Z" />
<glyph unicode="#" glyph-name="numbersign" horiz-adv-x="972" d="M498 461H330L264 119H139L205 461H76L102 584H227L283 870H158L184 993H307L369 1315H494L432 993H600L664 1315H788L727 993H852L823 870H702L647 584H770L741 461H625L559 119H432L498 461ZM352
584H522L578 870H408L352 584Z" />
<glyph unicode="$" glyph-name="dollar" horiz-adv-x="972" d="M428 -25Q336 -23 268 -8T154 37L201 176Q236 153 292 137T428 117V688Q377 721 328 759T241 846T180 959T156 1112Q156 1247 224 1338T428 1452V1638H551V1458Q631 1454 684 1442T784 1407L737 1274Q702
1292 659 1304T551 1321V797L653 721Q704 682 744 632T809 518T834 367Q834 220 761 117T551 -14V-205H428V-25ZM520 117Q592 133 636 193T680 356Q680 452 634 513T520 625V117ZM459 1317Q375 1301 342 1243T309 1118Q309 1030 351 970T459 860V1317Z" />
<glyph unicode="%" glyph-name="percent" horiz-adv-x="1304" d="M1061 1460L1157 1399L285 -25L188 37L1061 1460ZM113 1110Q113 1204 132 1270T187 1379T271 1439T374 1458T478 1441T562 1383T617 1276T637 1110T618 945T562 837T478 780T375 762T271 779T188
837T133 944T113 1110ZM246 1110Q246 977 281 926T375 874Q404 874 427 884T467 920T492 992T502 1110Q502 1180 493 1226T467 1298T427 1335T375 1346Q344 1346 321 1336T281 1299T255 1226T246 1110ZM715 350Q715 444 734 511T789 620T873 680T977 698T1080 681T1164
624T1219 517T1239 351T1220 185T1164 77T1080 20T977 2T874 19T790 77T735 184T715 350ZM848 350Q848 217 884 166T977 115Q1006 115 1029 125T1069 160T1094 232T1104 350Q1104 420 1095 466T1069 538T1030 575T977 586Q946 586 923 576T883 539T857 466T848
350Z" />
<glyph unicode="&amp;" glyph-name="ampersand" horiz-adv-x="1343" d="M186 385Q186 467 211 539T275 674T366 788T471 881Q430 955 400 1032T369 1196Q369 1245 382 1292T426 1376T504 1435T618 1458Q688 1458 736 1438T813 1385T855 1310T868 1223Q868 1135
813 1043T645 862Q672 805 705 743T777 617L855 495Q895 435 934 383Q971 434 1003 520T1057 686L1176 639Q1166 604 1147 555T1107 456T1062 360T1018 283Q1086 203 1132 159T1225 82L1133 -25Q1041 28 932 166Q903 129 867 95T787 35T689 -8T571 -25Q491 -25
421 1T298 78T216 206T186 385ZM846 266Q799 325 754 393L668 528Q627 596 593 659T537 776Q494 735 457 694T393 607T350 507T334 387Q334 319 354 267T410 180T492 127T590 109Q629 109 668 123T740 159T801 209T846 266ZM516 1196Q516 1135 535 1076T586 954Q670
1026 701 1085T733 1192Q733 1249 710 1291T625 1333Q568 1333 542 1294T516 1196Z" />
<glyph unicode="&apos;" glyph-name="quotesingle" horiz-adv-x="370" d="M147 1434H289L236 1038H147V1434Z" />
<glyph unicode="(" glyph-name="parenleft" horiz-adv-x="477" d="M375 -451Q297 -353 245 -235T160 7T113 257T98 498Q98 611 112 735T160 986T247 1233T379 1458L471 1403Q405 1299 362 1184T294 952T257 718T246 498Q246 400 258 282T298 45T369 -186T471 -389L375
-451Z" />
<glyph unicode=")" glyph-name="parenright" horiz-adv-x="479" d="M100 1458Q176 1360 231 1242T319 1001T366 751T381 510Q381 397 367 272T320 22T233 -225T100 -451L10 -393Q76 -289 119 -174T187 57T223 290T233 510Q233 608 220 726T180 963T110 1197T8
1401L100 1458Z" />
<glyph unicode="*" glyph-name="asterisk" horiz-adv-x="595" d="M221 1440L262 1362L293 1255L326 1362L369 1438L459 1389L412 1307L334 1219L446 1241H532V1137H453L342 1159L422 1069L463 997L375 946L332 1024L293 1137L262 1028L219 952L129 1004L176 1081L248
1159L152 1137H61V1241H152L254 1219L176 1303L131 1386L221 1440Z" />
<glyph unicode="+" glyph-name="plus" horiz-adv-x="849" d="M70 764H354V1083H494V764H778V631H494V307H354V631H70V764Z" />
<glyph unicode="," glyph-name="comma" horiz-adv-x="331" d="M74 88Q74 139 103 170T180 201Q233 201 267 158T301 23Q301 -45 284 -99T239 -195T178 -262T115 -301L63 -231Q90 -217 113 -194T152 -142T176 -81T184 -18Q143 -30 109 -2T74 88Z" />
<glyph unicode="-" glyph-name="hyphen" horiz-adv-x="595" d="M96 655H500V514H96V655Z" />
<glyph unicode="." glyph-name="period" horiz-adv-x="317" d="M80 92Q80 149 107 178T182 207T257 179T285 92Q285 33 257 4T182 -25T108 4T80 92Z" />
<glyph unicode="/" glyph-name="slash" horiz-adv-x="604" d="M545 1458L659 1413L61 -287L-57 -244L545 1458Z" />
<glyph unicode="0" glyph-name="zero" horiz-adv-x="972" d="M104 717Q104 914 129 1055T202 1285T321 1416T485 1458Q585 1458 657 1416T776 1285T845 1055T868 717Q868 518 844 378T771 149T652 17T487 -25Q387 -25 316 18T197 151T127 382T104 717ZM258 717Q258
424 312 267T489 109Q608 109 661 253T715 717Q715 1008 665 1166T485 1325Q366 1325 312 1182T258 717Z" />
<glyph unicode="1" glyph-name="one" horiz-adv-x="972" d="M221 137H449V1135L467 1255L397 1157L225 1018L147 1110L520 1458H596V137H823V0H221V137Z" />
<glyph unicode="2" glyph-name="two" horiz-adv-x="972" d="M803 0H139V66Q178 113 228 184L333 341Q387 426 439 521T532 714T599 909T625 1094Q625 1198 578 1261T436 1325Q377 1325 321 1303T223 1247L166 1354Q223 1403 302 1430T469 1458Q621 1458 699 1365T778
1120Q778 1007 745 885T659 642T543 412T418 215L334 125V119L442 137H803V0Z" />
<glyph unicode="3" glyph-name="three" horiz-adv-x="972" d="M215 156Q254 133 304 121T420 109Q475 109 521 131T601 195T653 292T672 416Q672 568 606 637T420 707H297V766L535 1225L614 1311L502 1296H180V1434H774V1374L512 885L451 825V821L510 834Q573
834 630 808T729 732T794 609T819 436Q819 325 788 240T702 96T575 6T420 -25Q348 -25 285 -13T174 23L215 156Z" />
<glyph unicode="4" glyph-name="four" horiz-adv-x="972" d="M907 440H717V0H573V440H66V510L608 1456H717V573H907V440ZM573 1032L594 1208H588L526 1051L301 659L223 559L336 573H573V1032Z" />
<glyph unicode="5" glyph-name="five" horiz-adv-x="972" d="M756 1434V1292H369V872L438 879Q602 877 696 766T791 449Q791 334 759 246T672 98T543 6T385 -25Q244 -25 158 14L195 145Q232 127 277 120T381 113Q498 113 570 198T643 436Q643 594 571 669T369
745L233 735V1434H756Z" />
<glyph unicode="6" glyph-name="six" horiz-adv-x="972" d="M854 432Q854 330 831 245T761 101T649 8T498 -25Q326 -25 229 100T131 481Q131 698 175 868T295 1161T473 1359T690 1458L731 1339Q641 1314 565 1257T432 1118T337 934T285 715Q312 770 374 811T528
852Q675 852 764 748T854 432ZM707 418Q707 719 489 719Q411 719 356 670T279 559Q275 532 274 507V459Q274 391 287 329T328 217T398 139T498 109Q590 109 648 191T707 418Z" />
<glyph unicode="7" glyph-name="seven" horiz-adv-x="972" d="M219 0L633 1210L707 1311L608 1292H139V1434H840V1378L367 0H219Z" />
<glyph unicode="8" glyph-name="eight" horiz-adv-x="972" d="M143 332Q143 469 199 565T367 739Q326 770 290 804T228 881T186 977T170 1100Q170 1266 257 1362T496 1458Q637 1458 720 1371T803 1133Q803 1016 758 926T616 750Q659 719 698 682T767 599T813 495T829
360Q829 186 736 81T477 -25Q397 -25 336 2T231 76T166 188T143 332ZM463 682Q369 612 327 526T285 354Q285 250 336 180T485 109Q565 109 623 167T682 352Q682 415 664 464T615 552T545 621T463 682ZM518 803Q588 873 625 943T662 1100Q662 1213 612 1269T494
1325Q451 1325 417 1308T361 1260T326 1189T313 1104Q313 1049 329 1005T374 925T440 860T518 803Z" />
<glyph unicode="9" glyph-name="nine" horiz-adv-x="972" d="M119 999Q119 1212 210 1335T481 1458Q653 1458 749 1331T846 942Q846 711 803 540T684 251T505 66T283 -25L244 96Q441 147 550 302T686 690Q645 631 593 607T455 582Q387 582 327 607T220 685T147
816T119 999ZM266 1016Q266 871 326 793T485 715Q563 715 617 748T696 836Q700 863 699 887T698 934Q698 1012 686 1082T646 1207T575 1293T473 1325Q377 1325 322 1241T266 1016Z" />
<glyph unicode=":" glyph-name="colon" horiz-adv-x="421" d="M156 918Q156 975 183 1003T258 1032T332 1004T360 918Q360 859 333 830T258 801T184 830T156 918ZM156 92Q156 149 183 178T258 207T332 179T360 92Q360 33 333 4T258 -25T184 4T156 92Z" />
<glyph unicode=";" glyph-name="semicolon" horiz-adv-x="442" d="M154 88Q154 139 183 170T260 201Q313 201 347 158T381 23Q381 -45 364 -99T319 -195T258 -262T195 -301L143 -231Q170 -217 193 -194T232 -142T256 -81T264 -18Q223 -30 189 -2T154 88ZM174 918Q174
975 201 1003T276 1032T351 1004T379 918Q379 859 352 830T277 801T202 830T174 918Z" />
<glyph unicode="&lt;" glyph-name="less" horiz-adv-x="849" d="M74 625V684L688 1141L768 1030L377 733L225 655L375 590L776 295L698 184L74 625Z" />
<glyph unicode="=" glyph-name="equal" horiz-adv-x="849" d="M72 596H776V459H72V596ZM72 934H776V797H72V934Z" />
<glyph unicode="&gt;" glyph-name="greater" horiz-adv-x="849" d="M152 184L74 295L475 590L625 655L473 733L82 1030L162 1141L776 684V625L152 184Z" />
<glyph unicode="?" glyph-name="question" horiz-adv-x="731" d="M250 362Q244 452 261 522T309 650T376 760T444 865T498 980T520 1116Q520 1210 479 1267T340 1325Q281 1325 224 1304T121 1249L63 1364Q124 1405 197 1431T375 1458Q522 1458 598 1372T674 1137Q674
1049 652 979T596 851T524 740T452 630T396 509T373 362H250ZM219 92Q219 149 246 178T321 207T396 178T424 92Q424 33 397 4T322 -25T247 4T219 92Z" />
<glyph unicode="@" glyph-name="at" horiz-adv-x="1755" d="M1157 1006H1225L1141 410Q1123 273 1130 206T1190 139T1296 174T1392 276T1459 442T1485 668Q1485 813 1443 922T1326 1106T1145 1217T909 1255Q776 1255 660 1201T457 1047T321 807T270 496Q270 318
316 187T446 -33T645 -164T899 -207Q948 -207 1012 -195T1124 -158L1161 -272Q1091 -305 1023 -318T879 -332Q729 -332 595 -285T360 -139T199 115T139 483Q139 694 201 861T369 1142T616 1318T915 1380Q1067 1380 1195 1335T1417 1200T1563 977T1616 668Q1616
527 1579 406T1480 197T1334 59T1157 8Q1118 8 1087 18T1036 53T1008 119T1008 219H999Q976 178 946 140T880 73T802 26T715 8Q629 8 569 85T508 307Q508 459 541 590T633 817T770 967T936 1022Q995 1022 1033 1002T1106 946L1157 1006ZM1063 819Q1036 856 1009
872T940 889Q879 889 826 843T733 720T672 545T649 342Q649 250 677 196T770 141Q801 141 833 163T898 222T958 303T1008 393L1063 819Z" />
<glyph unicode="A" glyph-name="A" horiz-adv-x="968" d="M682 401H276L162 0H10L442 1456H526L958 0H799L682 401ZM317 539H645L520 981L481 1196H477L438 977L317 539Z" />
<glyph unicode="B" glyph-name="B" horiz-adv-x="964" d="M842 1108Q842 1055 830 1002T791 901T724 817T627 762V754Q676 744 721 720T801 654T856 552T877 408Q877 297 842 216T747 84T607 9T440 -16H374Q336 -16 293 -13T208 -5T131 10V1421Q192 1433 275 1441T455
1450Q525 1450 594 1437T719 1387T808 1284T842 1108ZM453 125Q508 125 555 142T638 194T694 279T715 397Q715 481 690 533T623 614T530 653T422 664H285V139Q297 135 316 133T359 129T408 126T453 125ZM369 797Q398 797 434 799T496 805Q572 836 626 904T680 1073Q680
1141 662 1187T612 1259T537 1297T446 1309Q393 1309 350 1306T285 1298V797H369Z" />
<glyph unicode="C" glyph-name="C" horiz-adv-x="937" d="M881 55Q830 12 752 -6T588 -25Q479 -25 387 16T229 146T125 377T88 717Q88 922 130 1063T241 1292T402 1419T590 1458Q688 1458 752 1444T864 1409L827 1270Q786 1293 731 1305T604 1317T469 1285T357
1183T279 998T250 717Q250 418 352 268T625 117Q695 117 750 136T844 182L881 55Z" />
<glyph unicode="D" glyph-name="D" horiz-adv-x="1075" d="M131 1434Q164 1440 204 1443T285 1447L366 1449Q406 1450 440 1450Q590 1450 694 1399T864 1253T958 1024T987 727Q987 580 960 445T867 207T694 43T424 -18Q397 -18 356 -17T271 -13T190 -8T131 -2V1434ZM449
1309H404Q380 1309 358 1307T317 1303T285 1298V131Q293 129 314 128L359 126L404 124Q426 123 436 123Q549 123 624 172T744 304T806 496T825 729Q825 838 809 942T751 1127T637 1258T449 1309Z" />
<glyph unicode="E" glyph-name="E" horiz-adv-x="878" d="M131 1434H768V1292H285V807H729V666H285V141H778V0H131V1434Z" />
<glyph unicode="F" glyph-name="F" horiz-adv-x="845" d="M131 1434H768V1292H285V786H735V645H285V0H131V1434Z" />
<glyph unicode="G" glyph-name="G" horiz-adv-x="1007" d="M526 715H922V84Q865 31 775 3T592 -25Q477 -25 384 18T226 152T124 383T88 717Q88 918 131 1058T246 1287T412 1417T604 1458T769 1445T883 1409L846 1270Q805 1293 749 1305T618 1317Q546 1317 481
1286T364 1185T281 1000T250 717Q250 410 347 264T614 117Q720 117 791 168V586L526 625V715Z" />
<glyph unicode="H" glyph-name="H" horiz-adv-x="1097" d="M813 662H285V0H131V1434H285V803H813V1434H967V0H813V662Z" />
<glyph unicode="I" glyph-name="I" horiz-adv-x="477" d="M162 1434H315V0H162V1434Z" />
<glyph unicode="J" glyph-name="J" horiz-adv-x="493" d="M190 1434H344V322Q344 154 290 67T100 -20Q67 -20 21 -12T-53 12L-20 145Q0 133 25 127T78 121Q115 121 137 137T172 183T187 255T190 350V1434Z" />
<glyph unicode="K" glyph-name="K" horiz-adv-x="1009" d="M358 664H285V0H131V1434H285V766L356 795L729 1434H905L530 815L459 750L543 668L958 0H764L358 664Z" />
<glyph unicode="L" glyph-name="L" horiz-adv-x="849" d="M821 0H131V1434H285V141H821V0Z" />
<glyph unicode="M" glyph-name="M" horiz-adv-x="1304" d="M1020 942L1038 1159H1030L965 956L676 334H625L322 956L258 1159H250L279 942V0H131V1434H260L606 729L657 561H662L711 731L1038 1434H1174V0H1020V942Z" />
<glyph unicode="N" glyph-name="N" horiz-adv-x="1101" d="M350 909L262 1135H256L279 909V0H131V1456H223L754 526L838 311H846L823 526V1434H971V-23H877L350 909Z" />
<glyph unicode="O" glyph-name="O" horiz-adv-x="1124" d="M88 717Q88 1082 205 1270T561 1458Q690 1458 780 1406T926 1258T1009 1024T1036 717Q1036 352 919 164T561 -25Q434 -25 344 27T197 176T114 409T88 717ZM250 717Q250 596 267 488T321 297T417 166T561
117Q715 117 794 264T874 717Q874 836 857 944T803 1136T707 1268T561 1317Q409 1317 330 1170T250 717Z" />
<glyph unicode="P" glyph-name="P" horiz-adv-x="923" d="M131 1419Q197 1437 270 1443T416 1450Q498 1450 577 1432T721 1364T826 1229T866 1010Q866 881 829 791T729 644T585 563T418 537H391Q373 537 353 538T313 541T285 545V0H131V1419ZM424 1309Q383 1309
345 1306T285 1296V686Q293 682 310 681L346 679Q364 678 382 678H408Q465 678 518 692T612 744T679 846T705 1010Q705 1096 681 1153T620 1245T531 1294T424 1309Z" />
<glyph unicode="Q" glyph-name="Q" horiz-adv-x="1124" d="M1159 -340Q1118 -354 1080 -359T1004 -365Q922 -365 843 -344T691 -297L551 -251Q483 -229 422 -229Q385 -229 348 -242V-102Q393 -90 438 -90Q506 -90 574 -110T712 -155T857 -200T1012 -221Q1086 -221
1159 -201V-340ZM88 717Q88 1082 205 1270T561 1458Q690 1458 780 1406T926 1258T1009 1024T1036 717Q1036 352 919 164T561 -25Q434 -25 344 27T197 176T114 409T88 717ZM250 717Q250 596 267 488T321 297T417 166T561 117Q715 117 794 264T874 717Q874 836 857
944T803 1136T707 1268T561 1317Q409 1317 330 1170T250 717Z" />
<glyph unicode="R" glyph-name="R" horiz-adv-x="983" d="M131 1419Q199 1435 279 1442T428 1450Q508 1450 579 1431T704 1365T789 1244T821 1057Q821 887 751 785T563 647L641 571L924 0H745L438 625L285 655V0H131V1419ZM285 758H408Q525 758 592 829T659 1049Q659
1162 603 1235T436 1309Q395 1309 351 1306T285 1296V758Z" />
<glyph unicode="S" glyph-name="S" horiz-adv-x="876" d="M121 190Q160 163 230 140T391 117Q506 117 577 173T649 350Q649 430 608 489T506 599T374 697T242 803T139 938T98 1120Q98 1292 201 1375T471 1458Q573 1458 653 1440T782 1393L733 1257Q696 1280 628
1298T469 1317Q358 1317 305 1263T252 1126Q252 1054 293 999T395 895T527 796T659 684T762 545T803 360Q803 180 697 78T395 -25Q272 -25 194 -3T68 49L121 190Z" />
<glyph unicode="T" glyph-name="T" horiz-adv-x="915" d="M887 1292H535V0H381V1292H29V1434H887V1292Z" />
<glyph unicode="U" glyph-name="U" horiz-adv-x="1067" d="M788 1434H936V473Q936 213 835 98T547 -18Q330 -18 231 94T131 440V1434H285V520Q285 409 299 334T346 211T428 144T549 123Q684 123 736 217T788 520V1434Z" />
<glyph unicode="V" glyph-name="V" horiz-adv-x="948" d="M446 453L483 233H487L528 457L795 1434H952L518 -23H436L-4 1434H166L446 453Z" />
<glyph unicode="W" glyph-name="W" horiz-adv-x="1376" d="M373 485L397 246H401L426 489L655 1434H743L973 487L997 246H999L1028 489L1210 1434H1364L1044 -23H950L723 922L694 1141H688L659 920L432 -23H336L10 1434H176L373 485Z" />
<glyph unicode="X" glyph-name="X" horiz-adv-x="1024" d="M416 729L72 1434H256L479 948L520 827L561 948L797 1434H967L610 743L983 0H803L555 514L508 641L465 514L211 0H39L416 729Z" />
<glyph unicode="Y" glyph-name="Y" horiz-adv-x="931" d="M391 569L10 1434H190L449 809L475 684H479L506 813L756 1434H922L545 571V0H391V569Z" />
<glyph unicode="Z" glyph-name="Z" horiz-adv-x="899" d="M59 141L629 1210L696 1292H59V1434H840V1292L268 217L203 141H840V0H59V141Z" />
<glyph unicode="[" glyph-name="bracketleft" horiz-adv-x="507" d="M131 1434H451V1300H279V-338H451V-471H131V1434Z" />
<glyph unicode="\" glyph-name="backslash" horiz-adv-x="647" d="M676 -240L553 -287L-57 1411L68 1458L676 -240Z" />
<glyph unicode="]" glyph-name="bracketright" horiz-adv-x="509" d="M379 -471H59V-338H231V1300H59V1434H379V-471Z" />
<glyph unicode="^" glyph-name="asciicircum" horiz-adv-x="843" d="M391 1456H453L737 891H584L457 1167L420 1309L371 1165L223 891H82L391 1456Z" />
<glyph unicode="_" glyph-name="underscore" horiz-adv-x="684" d="M0 -287H684V-420H0V-287Z" />
<glyph unicode="`" glyph-name="grave" horiz-adv-x="522" d="M399 1169H315L123 1432V1475H293L399 1169Z" />
<glyph unicode="a" glyph-name="a" horiz-adv-x="819" d="M111 963Q170 1000 255 1020T434 1040Q520 1040 572 1015T654 945T693 845T702 727Q702 604 697 488T692 266Q692 188 697 122T717 -4H604L569 117H561Q530 64 471 25T311 -14Q200 -14 130 62T59 274Q59
362 89 421T173 518T302 570T469 586H510Q530 586 553 584Q559 647 559 696Q559 813 524 860T397 907Q340 907 273 890T160 846L111 963ZM555 467Q534 469 514 470T473 471Q424 471 377 463T293 435T235 379T213 291Q213 209 253 164T356 119Q442 119 489 160T555
250V467Z" />
<glyph unicode="b" glyph-name="b" horiz-adv-x="888" d="M121 1434H268V946H274Q358 1048 498 1049Q656 1049 734 924T813 528Q813 252 708 117T410 -18Q316 -18 238 3T121 53V1434ZM268 150Q297 134 339 125T428 115Q534 115 596 216T659 528Q659 616 648 687T614
809T552 887T461 915Q387 915 339 871T268 752V150Z" />
<glyph unicode="c" glyph-name="c" horiz-adv-x="729" d="M686 51Q635 12 570 -6T432 -25Q334 -25 267 13T157 122T96 292T76 512Q76 774 169 911T436 1049Q516 1049 573 1035T672 997L631 868Q549 915 453 915Q342 915 286 818T229 512Q229 428 241 355T282 227T356
141T469 109Q522 109 568 127T643 170L686 51Z" />
<glyph unicode="d" glyph-name="d" horiz-adv-x="886" d="M766 352Q766 248 768 163T782 -4H682L649 119H641Q612 58 551 17T403 -25Q237 -25 157 104T76 510Q76 772 175 907T449 1042Q508 1042 543 1035T618 1012V1434H766V352ZM618 862Q589 887 554 898T459
909Q350 909 290 811T229 508Q229 418 240 345T275 219T337 138T430 109Q576 109 618 283V862Z" />
<glyph unicode="e" glyph-name="e" horiz-adv-x="845" d="M733 70Q684 25 608 0T449 -25Q353 -25 282 13T165 122T98 291T76 512Q76 774 172 911T444 1049Q501 1049 557 1035T659 977T732 856T760 653Q760 618 757 579T750 496H229Q229 408 243 336T288 214T367
137T487 109Q542 109 596 129T680 178L733 70ZM618 618Q622 772 575 843T446 915Q352 915 297 844T231 618H618Z" />
<glyph unicode="f" glyph-name="f" horiz-adv-x="526" d="M33 1024H158V1081Q158 1274 213 1360T401 1446Q454 1446 497 1440T586 1413L549 1286Q512 1302 481 1307T420 1313Q379 1313 357 1297T323 1245T308 1156T305 1024H518V891H305V0H158V891H33V1024Z" />
<glyph unicode="g" glyph-name="g" horiz-adv-x="884" d="M766 -47Q766 -246 678 -340T422 -434Q320 -434 254 -417T147 -377L190 -250Q231 -268 280 -284T401 -301Q526 -301 572 -232T618 2V78H612Q579 31 528 4T397 -23Q231 -23 154 105T76 508Q76 772 177 907T477
1042Q573 1042 643 1024T766 981V-47ZM618 877Q557 910 461 909Q357 909 293 814T229 510Q229 424 239 352T274 225T337 141T430 111Q508 111 553 152T618 274V877Z" />
<glyph unicode="h" glyph-name="h" horiz-adv-x="901" d="M645 0V623Q645 766 612 840T477 915Q405 915 347 864T268 735V0H121V1434H268V928H274Q315 981 375 1015T526 1049Q594 1049 644 1031T727 967T776 847T793 662V0H645Z" />
<glyph unicode="i" glyph-name="i" horiz-adv-x="444" d="M145 1024H293V0H145V1024ZM119 1335Q119 1384 146 1415T219 1446T294 1416T324 1335Q324 1286 294 1259T219 1231T147 1259T119 1335Z" />
<glyph unicode="j" glyph-name="j" horiz-adv-x="440" d="M147 1024H295V-55Q295 -266 228 -359T8 -430V-297Q53 -297 81 -279T124 -222T143 -128T147 4V1024ZM119 1335Q119 1384 146 1415T219 1446T294 1417T324 1335Q324 1286 294 1259T219 1231T147 1259T119 1335Z" />
<glyph unicode="k" glyph-name="k" horiz-adv-x="794" d="M344 461H268V0H121V1434H268V561L336 590L575 1024H745L504 610L432 545L516 465L780 0H602L344 461Z" />
<glyph unicode="l" glyph-name="l" horiz-adv-x="477" d="M279 244Q279 172 298 142T352 111Q395 111 453 133L467 14Q440 -2 392 -12T305 -23Q227 -23 179 25T131 195V1434H279V244Z" />
<glyph unicode="m" glyph-name="m" horiz-adv-x="1333" d="M600 0V608Q600 690 595 748T574 844T529 898T453 915Q383 915 335 861T268 737V0H121V1024H225L252 915H258Q301 974 360 1011T512 1049Q590 1049 640 1015T719 895Q756 967 824 1008T975 1049Q1043
1049 1091 1032T1168 970T1212 853T1227 670V0H1079V651Q1079 784 1054 849T936 915Q858 915 812 867T748 737V0H600Z" />
<glyph unicode="n" glyph-name="n" horiz-adv-x="899" d="M645 0V625Q645 779 609 847T481 915Q399 915 346 866T268 745V0H121V1024H227L254 915H260Q299 970 365 1009T524 1049Q590 1049 640 1031T724 968T775 850T793 664V0H645Z" />
<glyph unicode="o" glyph-name="o" horiz-adv-x="884" d="M76 512Q76 788 171 918T442 1049Q630 1049 719 916T809 512Q809 233 713 104T442 -25Q254 -25 165 108T76 512ZM229 512Q229 422 240 348T277 221T344 139T442 109Q548 109 601 204T655 512Q655 600 644
675T608 803T541 885T442 915Q338 915 284 819T229 512Z" />
<glyph unicode="p" glyph-name="p" horiz-adv-x="890" d="M121 1024H225L248 913H256Q332 1048 493 1048T736 928T817 532Q817 403 791 300T715 124T595 13T438 -25Q379 -25 344 -18T268 12V-410H121V1024ZM268 162Q297 137 333 123T428 109Q537 109 600 219T664
535Q664 621 653 690T617 810T554 887T461 915Q311 915 268 733V162Z" />
<glyph unicode="q" glyph-name="q" horiz-adv-x="884" d="M766 -410H618V84H610Q577 33 527 4T397 -25Q235 -25 156 105T76 508Q76 772 180 907T483 1042Q569 1042 647 1022T766 979V-410ZM618 874Q561 909 457 909Q351 909 290 811T229 510Q229 424 239 350T273
222T335 139T428 109Q506 109 551 154T618 285V874Z" />
<glyph unicode="r" glyph-name="r" horiz-adv-x="561" d="M121 1024H225L252 915H258Q287 974 333 1008T444 1042Q491 1042 551 1024L522 874Q469 892 428 893Q362 893 322 855T268 754V0H121V1024Z" />
<glyph unicode="s" glyph-name="s" horiz-adv-x="692" d="M104 168Q145 143 201 126T317 109Q385 109 432 142T479 252Q479 315 451 356T378 430T283 490T187 557T115 649T86 784Q86 915 156 982T356 1049Q440 1049 501 1034T608 991L569 868Q530 888 479 901T375
915Q301 915 267 885T233 788Q233 737 262 702T335 636T430 576T525 503T598 403T627 256Q627 199 609 148T552 58T458 -2T326 -25Q236 -25 170 -8T59 39L104 168Z" />
<glyph unicode="t" glyph-name="t" horiz-adv-x="563" d="M18 1024H143V1227L291 1274V1024H512V891H291V281Q291 191 312 151T383 111Q424 111 453 120T518 143L547 27Q502 4 448 -9T334 -23Q232 -23 188 44T143 260V891H18V1024Z" />
<glyph unicode="u" glyph-name="u" horiz-adv-x="888" d="M254 1024V397Q254 241 285 175T401 109Q444 109 478 126T538 172T585 237T618 313V1024H766V291Q766 217 771 138T786 0H682L645 143H639Q604 75 539 25T375 -25Q309 -25 260 -9T176 51T124 169T106 360V1024H254Z"
/>
<glyph unicode="v" glyph-name="v" horiz-adv-x="794" d="M369 424L410 221H414L451 428L631 1024H786L436 -23H365L8 1024H176L369 424Z" />
<glyph unicode="w" glyph-name="w" horiz-adv-x="1208" d="M668 1024L850 426L887 229H891L922 430L1061 1024H1200L928 -23H844L637 649L608 821H604L575 647L375 -23H291L10 1024H168L326 428L350 229H354L391 432L559 1024H668Z" />
<glyph unicode="x" glyph-name="x" horiz-adv-x="843" d="M330 524L59 1024H236L387 731L428 616L471 731L627 1024H788L516 532L805 0H637L465 322L420 444L373 322L201 0H39L330 524Z" />
<glyph unicode="y" glyph-name="y" horiz-adv-x="770" d="M375 362L418 164H428L459 362L614 1024H764L520 104Q491 -7 463 -103T401 -269T325 -380T226 -420T125 -401L150 -262Q179 -272 207 -266T261 -232T308 -147T346 0L14 1024H182L375 362Z" />
<glyph unicode="z" glyph-name="z" horiz-adv-x="737" d="M66 133L446 803L518 891H66V1024H664V891L281 215L211 133H664V0H66V133Z" />
<glyph unicode="{" glyph-name="braceleft" horiz-adv-x="577" d="M219 233Q219 337 186 376T88 416V549Q151 549 185 590T219 721V1227Q219 1323 257 1379T381 1436H532V1303H453Q406 1303 387 1277T367 1186V686Q367 596 333 549T252 492V479Q299 471 333 417T367
276V-221Q367 -284 386 -311T455 -338H532V-471H381Q219 -471 219 -264V233Z" />
<glyph unicode="|" glyph-name="bar" horiz-adv-x="389" d="M133 1434H258V-266H133V1434Z" />
<glyph unicode="}" glyph-name="braceright" horiz-adv-x="577" d="M358 -264Q358 -471 197 -471H45V-338H123Q172 -338 191 -312T211 -221V276Q211 362 245 416T326 479V492Q279 502 245 549T211 686V1186Q211 1252 192 1277T125 1303H45V1436H197Q283 1436 320
1380T358 1227V721Q358 631 392 590T489 549V416Q426 416 392 377T358 233V-264Z" />
<glyph unicode="~" glyph-name="asciitilde" horiz-adv-x="849" d="M47 739Q121 807 180 833T291 860Q338 860 379 843T457 806L529 769Q565 752 602 752Q631 752 663 766T731 819L801 696Q735 641 684 620T590 598Q545 598 507 615T433 654T362 693T287 711Q250
711 208 691T115 618L47 739Z" />
<glyph unicode="&#xa0;" glyph-name="uni00A0" horiz-adv-x="434" />
<glyph unicode="&#xa1;" glyph-name="exclamdown" horiz-adv-x="503" d="M143 -418H297V293L266 653H174L143 293V-418ZM117 924Q117 867 144 838T219 809T294 837T322 924Q322 983 294 1011T219 1040T145 1012T117 924Z" />
<glyph unicode="&#xa2;" glyph-name="cent" horiz-adv-x="972" d="M807 55Q770 24 720 6T616 -18V-205H483V-20Q399 -8 342 35T249 146T197 308T180 512Q180 745 258 880T483 1042V1229H616V1047Q671 1043 714 1031T793 997L754 868Q721 886 683 897T604 913V109Q655
113 696 131T766 172L807 55ZM334 512Q334 438 343 374T372 258T426 170T506 119V907Q418 884 376 788T334 512Z" />
<glyph unicode="&#xa3;" glyph-name="sterling" horiz-adv-x="972" d="M111 780H223Q203 839 189 908T174 1069Q174 1268 267 1363T520 1458Q620 1458 694 1442T819 1401L770 1266Q731 1286 671 1301T524 1317Q430 1317 379 1254T328 1063Q328 977 345 911T385
780H645V647H432Q446 600 455 550T465 434Q465 375 448 306T399 193L319 121V113L440 141H854V0H111V141H115Q166 143 203 168T264 232T300 322T311 422Q311 492 299 544T270 647H111V780Z" />
<glyph unicode="&#xa5;" glyph-name="yen" horiz-adv-x="972" d="M207 668H369L31 1434H211L469 809L496 684H500L526 813L776 1434H942L606 668H770V549H565V416H770V297H565V0H412V297H207V416H412V549H207V668Z" />
<glyph unicode="&#xa7;" glyph-name="section" horiz-adv-x="829" d="M92 723Q92 786 118 848T193 958L262 989Q217 1024 186 1073T154 1208Q154 1317 222 1387T426 1458Q512 1458 575 1442T684 1403L647 1276Q604 1296 552 1310T442 1325Q368 1325 335 1290T301
1204Q301 1151 334 1118T415 1060T519 1010T623 948T704 855T737 711Q737 648 713 583T641 471L567 442Q610 409 643 359T676 225Q676 102 599 39T397 -25Q311 -25 250 -10T143 35L182 160Q221 137 272 123T381 109Q528 109 528 233Q528 282 496 314T415 371T311
421T206 484T125 578T92 723ZM590 707Q590 756 571 788T518 844T443 888L356 928Q307 899 274 850T240 727Q240 680 259 646T311 587T386 542L473 502Q518 531 554 586T590 707Z" />
<glyph unicode="&#xa8;" glyph-name="dieresis" horiz-adv-x="747" d="M123 1337Q123 1384 146 1411T211 1438T275 1411T299 1337Q299 1294 276 1268T211 1241T147 1267T123 1337ZM449 1337Q449 1384 472 1411T537 1438T601 1411T625 1337Q625 1294 602 1268T537
1241T473 1267T449 1337Z" />
<glyph unicode="&#xa9;" glyph-name="copyright" horiz-adv-x="1419" d="M102 457T102 600T150 856T282 1046T475 1166T711 1208T946 1166T1140 1047T1271 856T1319 600T1271 344T1140 153T947 33T711 -8Q572 -8 460 33T268 152T145 344ZM225 719T225 600T263
389T366 235T520 139T711 106Q811 106 900 139T1054 234T1158 389T1196 600T1158 811T1055 965T900 1061T711 1094Q609 1094 521 1061T367 966T263 811ZM913 317Q872 294 823 282T709 270Q570 270 496 359T422 600Q422 758 501 843T709 928Q772 928 811 916T901
881L856 768Q817 786 784 794T725 803Q653 803 611 757T569 600Q569 397 739 397Q817 397 877 430L913 317Z" />
<glyph unicode="&#xaa;" glyph-name="ordfeminine" horiz-adv-x="651" d="M111 1395Q154 1418 222 1434T377 1450Q486 1450 524 1397T563 1243Q563 1102 559 985T571 778H469L446 864H440Q420 829 380 800T272 770Q180 770 129 822T78 965Q78 1033 106 1077T184
1149T297 1185T436 1190Q442 1272 425 1306T342 1341Q283 1341 231 1328T143 1298L111 1395ZM297 881Q358 881 390 910T436 971V1087Q395 1089 354 1088T281 1077T228 1044T207 977Q207 936 229 909T297 881Z" />
<glyph unicode="&#xab;" glyph-name="guillemotleft" horiz-adv-x="790" d="M365 530L625 997L723 930L559 616L481 532L559 459L733 152L635 82L365 530ZM59 530L324 1001L426 932L258 616L180 532L258 459L438 150L334 78L59 530Z" />
<glyph unicode="&#xac;" glyph-name="logicalnot" horiz-adv-x="849" d="M74 801H776V410H643V659H74V801Z" />
<glyph unicode="&#xae;" glyph-name="registered" horiz-adv-x="1210" d="M147 893T147 1003T184 1199T283 1342T429 1430T604 1460Q700 1460 784 1431T929 1343T1027 1199T1063 1004T1026 807T927 663T781 575T604 545Q508 545 425 574T281 662T183 807ZM258
1004Q258 914 285 847T360 735T470 669T604 647Q680 647 743 668T853 734T925 844T952 1004Q952 1092 925 1158T850 1270T740 1336T604 1358Q528 1358 465 1337T355 1270T284 1159T258 1004ZM426 1227Q455 1235 505 1240T600 1245Q672 1245 724 1215T776 1110Q776
1055 742 1025T653 991L702 969L829 778H723L600 958L516 985V778H426V1227ZM580 1167Q564 1167 545 1166T516 1159V1036H575Q679 1036 680 1106Q680 1167 580 1167Z" />
<glyph unicode="&#xaf;" glyph-name="overscore" horiz-adv-x="743" d="M123 1317H621V1194H123V1317Z" />
<glyph unicode="&#xb0;" glyph-name="degree" horiz-adv-x="700" d="M127 1169Q127 1298 192 1378T367 1458Q473 1458 540 1384T608 1170T541 956T367 881Q258 881 193 955T127 1169ZM244 1249T244 1170T277 1040T366 989T457 1039T492 1169T457 1299T367 1350T278 1300Z" />
<glyph unicode="&#xb1;" glyph-name="plusminus" horiz-adv-x="849" d="M72 961H356V1278H494V961H778V823H494V608H356V823H72V961ZM72 506H778V369H72V506Z" />
<glyph unicode="&#xb4;" glyph-name="acute" horiz-adv-x="501" d="M219 1475H379V1432L211 1169H123L219 1475Z" />
<glyph unicode="&#xb5;" glyph-name="uni00B5" horiz-adv-x="921" d="M256 1024V406Q256 259 298 184T436 109Q522 109 579 160T664 297V1024H811V334Q811 250 815 165T836 0H731L684 127H678Q645 61 580 18T420 -25Q344 -25 302 2T231 70H221L258 -137V-410H109V1024H256Z"
/>
<glyph unicode="&#xb6;" glyph-name="paragraph" horiz-adv-x="825" d="M569 1434H694V-266H569V1434ZM303 635Q248 635 204 666T127 753T77 881T59 1036Q59 1116 78 1189T135 1316T224 1402T344 1434H428V-266H303V635Z" />
<glyph unicode="&#xb7;" glyph-name="middot" horiz-adv-x="436" d="M117 604Q117 661 144 690T219 719T294 691T322 604Q322 545 294 516T219 487T145 516T117 604Z" />
<glyph unicode="&#xb8;" glyph-name="cedilla" horiz-adv-x="536" d="M281 -88Q414 -119 414 -242Q414 -289 394 -328T334 -391T242 -423T123 -418L137 -338Q184 -342 212 -336T254 -318T272 -290T276 -260Q276 -203 135 -184L217 0H319L281 -88Z" />
<glyph unicode="&#xba;" glyph-name="ordmasculine" horiz-adv-x="665" d="M72 1110Q72 1204 91 1270T146 1379T230 1439T334 1458T437 1441T521 1383T576 1276T596 1110T577 945T521 837T437 780T334 762T231 779T147 837T92 944T72 1110ZM205 1110Q205 977 240
926T334 874Q363 874 386 884T426 920T451 992T461 1110Q461 1180 452 1226T426 1298T386 1335T334 1346Q303 1346 280 1336T240 1299T214 1226T205 1110Z" />
<glyph unicode="&#xbb;" glyph-name="guillemotright" horiz-adv-x="790" d="M426 549L166 82L66 147L231 463L309 547L231 621L57 930L156 997L426 549ZM731 549L467 78L362 145L532 463L610 547L532 621L352 932L457 1001L731 549Z" />
<glyph unicode="&#xbf;" glyph-name="questiondown" horiz-adv-x="733" d="M481 662Q487 572 470 502T422 374T356 264T287 159T233 45T211 -92Q211 -186 252 -243T391 -301Q450 -301 507 -280T610 -225L668 -340Q607 -381 534 -407T356 -434Q209 -434 133 -348T57
-113Q57 -25 79 45T135 173T207 284T279 394T335 515T358 662H481ZM512 932Q512 875 485 846T410 817T335 846T307 932Q307 991 335 1020T410 1049T484 1020T512 932Z" />
<glyph unicode="&#xc0;" glyph-name="Agrave" horiz-adv-x="968" d="M528 1540H395L135 1739V1782H338L528 1540ZM682 401H276L162 0H10L442 1456H526L958 0H799L682 401ZM317 539H645L520 981L481 1196H477L438 977L317 539Z" />
<glyph unicode="&#xc1;" glyph-name="Aacute" horiz-adv-x="968" d="M631 1782H834V1739L565 1540H440L631 1782ZM682 401H276L162 0H10L442 1456H526L958 0H799L682 401ZM317 539H645L520 981L481 1196H477L438 977L317 539Z" />
<glyph unicode="&#xc2;" glyph-name="Acircumflex" horiz-adv-x="968" d="M436 1782H539L748 1573V1530H612L516 1630L485 1702L455 1632L348 1530H217V1575L436 1782ZM682 401H276L162 0H10L442 1456H526L958 0H799L682 401ZM317 539H645L520 981L481 1196H477L438
977L317 539Z" />
<glyph unicode="&#xc3;" glyph-name="Atilde" horiz-adv-x="968" d="M205 1597Q262 1667 310 1692T401 1718Q434 1718 464 1708T521 1687L574 1665Q600 1655 627 1655Q650 1655 671 1663T715 1696L768 1620Q719 1563 676 1543T596 1522Q565 1522 537 1532T480
1553L426 1575Q399 1585 371 1585T315 1573T254 1526L205 1597ZM682 401H276L162 0H10L442 1456H526L958 0H799L682 401ZM317 539H645L520 981L481 1196H477L438 977L317 539Z" />
<glyph unicode="&#xc4;" glyph-name="Adieresis" horiz-adv-x="968" d="M551 1583T551 1626T576 1695T645 1722Q690 1722 715 1696T741 1626T716 1558T645 1532Q602 1532 577 1557ZM227 1583T227 1626T253 1695T324 1722Q367 1722 392 1696T418 1626T393 1558T324
1532Q279 1532 253 1557ZM682 401H276L162 0H10L442 1456H526L958 0H799L682 401ZM317 539H645L520 981L481 1196H477L438 977L317 539Z" />
<glyph unicode="&#xc5;" glyph-name="Aring" horiz-adv-x="968" d="M303 1573Q303 1649 346 1698T487 1745Q575 1747 623 1703T672 1573Q672 1510 639 1466T541 1407L958 0H799L682 401H276L162 0H10L428 1407Q367 1423 335 1465T303 1573ZM317 539H645L520 981L481
1196H477L438 977L317 539ZM414 1573Q414 1536 431 1513T487 1489Q561 1489 561 1573Q561 1661 487 1663Q414 1661 414 1573Z" />
<glyph unicode="&#xc6;" glyph-name="AE" horiz-adv-x="1398" d="M651 408H313L129 0H-37L649 1434H1290V1292H805V807H1249V666H805V141H1298V0H651V408ZM645 1206L592 1006L381 545H651V1206H645Z" />
<glyph unicode="&#xc7;" glyph-name="Ccedilla" horiz-adv-x="937" d="M881 55Q838 18 775 0T639 -23L610 -88Q743 -119 743 -242Q743 -322 685 -374T528 -426Q487 -426 453 -418L467 -338Q514 -342 541 -336T583 -318T602 -290T606 -260Q606 -203 465 -184L537
-20Q439 -12 356 34T213 169T121 393T88 717Q88 922 130 1063T241 1292T402 1419T590 1458Q688 1458 752 1444T864 1409L827 1270Q786 1293 731 1305T604 1317T469 1285T357 1183T279 998T250 717Q250 418 352 269T625 119Q695 119 750 138T844 184L881 55Z" />
<glyph unicode="&#xc8;" glyph-name="Egrave" horiz-adv-x="878" d="M547 1540H414L154 1739V1782H356L547 1540ZM131 1434H768V1292H285V807H729V666H285V141H778V0H131V1434Z" />
<glyph unicode="&#xc9;" glyph-name="Eacute" horiz-adv-x="878" d="M528 1782H731V1739L463 1540H338L528 1782ZM131 1434H768V1292H285V807H729V666H285V141H778V0H131V1434Z" />
<glyph unicode="&#xca;" glyph-name="Ecircumflex" horiz-adv-x="878" d="M393 1782H496L705 1573V1530H569L473 1630L442 1702L412 1632L305 1530H174V1575L393 1782ZM131 1434H768V1292H285V807H729V666H285V141H778V0H131V1434Z" />
<glyph unicode="&#xcb;" glyph-name="Edieresis" horiz-adv-x="878" d="M508 1583T508 1626T533 1695T602 1722Q647 1722 672 1696T698 1626T673 1558T602 1532Q559 1532 534 1557ZM184 1583T184 1626T210 1695T281 1722Q324 1722 349 1696T375 1626T350 1558T281
1532Q236 1532 210 1557ZM131 1434H768V1292H285V807H729V666H285V141H778V0H131V1434Z" />
<glyph unicode="&#xcc;" glyph-name="Igrave" horiz-adv-x="477" d="M328 1540H195L-66 1739V1782H137L328 1540ZM162 1434H315V0H162V1434Z" />
<glyph unicode="&#xcd;" glyph-name="Iacute" horiz-adv-x="477" d="M346 1782H549V1739L281 1540H156L346 1782ZM162 1434H315V0H162V1434Z" />
<glyph unicode="&#xce;" glyph-name="Icircumflex" horiz-adv-x="477" d="M193 1782H295L504 1573V1530H369L272 1630L242 1702L211 1632L104 1530H-27V1575L193 1782ZM162 1434H315V0H162V1434Z" />
<glyph unicode="&#xcf;" glyph-name="Idieresis" horiz-adv-x="477" d="M307 1583T307 1626T332 1695T401 1722Q446 1722 472 1696T498 1626T472 1558T401 1532Q358 1532 333 1557ZM-16 1583T-16 1626T9 1695T80 1722Q123 1722 148 1696T174 1626T149 1558T80
1532Q35 1532 10 1557ZM162 1434H315V0H162V1434Z" />
<glyph unicode="&#xd1;" glyph-name="Ntilde" horiz-adv-x="1101" d="M276 1597Q333 1667 381 1692T473 1718Q506 1718 535 1708T593 1687L646 1665Q672 1655 698 1655Q721 1655 742 1663T786 1696L840 1620Q791 1563 748 1543T668 1522Q637 1522 609 1532T552
1553L498 1575Q471 1585 443 1585T386 1573T326 1526L276 1597ZM350 909L262 1135H256L279 909V0H131V1456H223L754 526L838 311H846L823 526V1434H971V-23H877L350 909Z" />
<glyph unicode="&#xd2;" glyph-name="Ograve" horiz-adv-x="1124" d="M682 1540H549L289 1739V1782H492L682 1540ZM88 717Q88 1082 205 1270T561 1458Q690 1458 780 1406T926 1258T1009 1024T1036 717Q1036 352 919 164T561 -25Q434 -25 344 27T197 176T114 409T88
717ZM250 717Q250 596 267 488T321 297T417 166T561 117Q715 117 794 264T874 717Q874 836 857 944T803 1136T707 1268T561 1317Q409 1317 330 1170T250 717Z" />
<glyph unicode="&#xd3;" glyph-name="Oacute" horiz-adv-x="1124" d="M686 1782H889V1739L621 1540H496L686 1782ZM88 717Q88 1082 205 1270T561 1458Q690 1458 780 1406T926 1258T1009 1024T1036 717Q1036 352 919 164T561 -25Q434 -25 344 27T197 176T114 409T88
717ZM250 717Q250 596 267 488T321 297T417 166T561 117Q715 117 794 264T874 717Q874 836 857 944T803 1136T707 1268T561 1317Q409 1317 330 1170T250 717Z" />
<glyph unicode="&#xd4;" glyph-name="Ocircumflex" horiz-adv-x="1124" d="M512 1782H614L823 1573V1530H688L592 1630L561 1702L530 1632L424 1530H293V1575L512 1782ZM88 717Q88 1082 205 1270T561 1458Q690 1458 780 1406T926 1258T1009 1024T1036 717Q1036
352 919 164T561 -25Q434 -25 344 27T197 176T114 409T88 717ZM250 717Q250 596 267 488T321 297T417 166T561 117Q715 117 794 264T874 717Q874 836 857 944T803 1136T707 1268T561 1317Q409 1317 330 1170T250 717Z" />
<glyph unicode="&#xd5;" glyph-name="Otilde" horiz-adv-x="1124" d="M285 1597Q342 1667 390 1692T481 1718Q514 1718 543 1708T601 1687L654 1665Q680 1655 707 1655Q730 1655 751 1663T795 1696L848 1620Q799 1563 756 1543T676 1522Q645 1522 617 1532T560
1553L506 1575Q479 1585 451 1585T395 1573T334 1526L285 1597ZM88 717Q88 1082 205 1270T561 1458Q690 1458 780 1406T926 1258T1009 1024T1036 717Q1036 352 919 164T561 -25Q434 -25 344 27T197 176T114 409T88 717ZM250 717Q250 596 267 488T321 297T417 166T561
117Q715 117 794 264T874 717Q874 836 857 944T803 1136T707 1268T561 1317Q409 1317 330 1170T250 717Z" />
<glyph unicode="&#xd6;" glyph-name="Odieresis" horiz-adv-x="1124" d="M627 1583T627 1626T652 1695T721 1722Q766 1722 791 1696T817 1626T792 1558T721 1532Q678 1532 653 1557ZM303 1583T303 1626T328 1695T399 1722Q442 1722 468 1696T494 1626T468 1558T399
1532Q354 1532 329 1557ZM88 717Q88 1082 205 1270T561 1458Q690 1458 780 1406T926 1258T1009 1024T1036 717Q1036 352 919 164T561 -25Q434 -25 344 27T197 176T114 409T88 717ZM250 717Q250 596 267 488T321 297T417 166T561 117Q715 117 794 264T874 717Q874
836 857 944T803 1136T707 1268T561 1317Q409 1317 330 1170T250 717Z" />
<glyph unicode="&#xd8;" glyph-name="Oslash" horiz-adv-x="1124" d="M88 717Q88 1082 205 1270T561 1458Q653 1458 726 1431T852 1352L913 1460L1012 1405L928 1255Q985 1157 1010 1022T1036 717Q1036 352 919 164T561 -25Q383 -25 274 78L219 -25L119 33L197
174Q140 272 114 408T88 717ZM250 717Q250 617 261 526T297 356L768 1200Q731 1255 680 1286T561 1317Q409 1317 330 1170T250 717ZM874 717Q874 815 863 905T827 1071L358 227Q395 174 445 146T561 117Q715 117 794 264T874 717Z" />
<glyph unicode="&#xd9;" glyph-name="Ugrave" horiz-adv-x="1067" d="M668 1540H535L274 1739V1782H477L668 1540ZM788 1434H936V473Q936 213 835 98T547 -18Q330 -18 231 94T131 440V1434H285V520Q285 409 299 334T346 211T428 144T549 123Q684 123 736 217T788
520V1434Z" />
<glyph unicode="&#xda;" glyph-name="Uacute" horiz-adv-x="1067" d="M637 1782H840V1739L571 1540H446L637 1782ZM788 1434H936V473Q936 213 835 98T547 -18Q330 -18 231 94T131 440V1434H285V520Q285 409 299 334T346 211T428 144T549 123Q684 123 736 217T788
520V1434Z" />
<glyph unicode="&#xdb;" glyph-name="Ucircumflex" horiz-adv-x="1067" d="M492 1782H594L803 1573V1530H668L571 1630L541 1702L510 1632L403 1530H272V1575L492 1782ZM788 1434H936V473Q936 213 835 98T547 -18Q330 -18 231 94T131 440V1434H285V520Q285 409
299 334T346 211T428 144T549 123Q684 123 736 217T788 520V1434Z" />
<glyph unicode="&#xdc;" glyph-name="Udieresis" horiz-adv-x="1067" d="M602 1583T602 1626T627 1695T696 1722Q741 1722 767 1696T793 1626T767 1558T696 1532Q653 1532 628 1557ZM279 1583T279 1626T304 1695T375 1722Q418 1722 443 1696T469 1626T444 1558T375
1532Q330 1532 305 1557ZM788 1434H936V473Q936 213 835 98T547 -18Q330 -18 231 94T131 440V1434H285V520Q285 409 299 334T346 211T428 144T549 123Q684 123 736 217T788 520V1434Z" />
<glyph unicode="&#xdf;" glyph-name="germandbls" horiz-adv-x="1069" d="M33 1024H158V1081Q158 1274 213 1360T399 1446Q456 1446 499 1439T588 1411L551 1288Q512 1304 483 1308T424 1313Q383 1313 360 1297T324 1245T308 1156T305 1024V0H158V891H33V1024ZM479
168Q520 143 576 126T692 109Q760 109 807 142T854 252Q854 315 826 356T753 430T658 490T562 557T490 649T461 784Q461 915 531 982T731 1049Q815 1049 876 1034T983 991L944 868Q905 888 854 901T750 915Q676 915 642 885T608 788Q608 737 637 702T710 636T805
576T900 503T972 403T1001 256Q1001 199 983 148T927 58T833 -2T700 -25Q610 -25 545 -8T434 39L479 168Z" />
<glyph unicode="&#xe0;" glyph-name="agrave" horiz-adv-x="819" d="M111 963Q170 1000 255 1020T434 1040Q520 1040 572 1015T654 945T693 845T702 727Q702 604 697 488T692 266Q692 188 697 122T717 -4H604L569 117H561Q530 64 471 25T311 -14Q200 -14 130 62T59
274Q59 362 89 421T173 518T302 570T469 586H510Q530 586 553 584Q559 647 559 696Q559 813 524 860T397 907Q340 907 273 890T160 846L111 963ZM555 467Q535 469 515 470T473 471Q424 471 377 463T293 435T235 379T213 291Q213 209 253 164T356 119Q442 119 489
160T555 250V467ZM500 1169H416L223 1432V1475H393L500 1169Z" />
<glyph unicode="&#xe1;" glyph-name="aacute" horiz-adv-x="819" d="M111 963Q170 1000 255 1020T434 1040Q520 1040 572 1015T654 945T693 845T702 727Q702 604 697 488T692 266Q692 188 697 122T717 -4H604L569 117H561Q530 64 471 25T311 -14Q200 -14 130 62T59
274Q59 362 89 421T173 518T302 570T469 586H510Q530 586 553 584Q559 647 559 696Q559 813 524 860T397 907Q340 907 273 890T160 846L111 963ZM555 467Q535 469 515 470T473 471Q424 471 377 463T293 435T235 379T213 291Q213 209 253 164T356 119Q442 119 489
160T555 250V467ZM397 1475H557V1432L389 1169H301L397 1475Z" />
<glyph unicode="&#xe2;" glyph-name="acircumflex" horiz-adv-x="819" d="M111 963Q170 1000 255 1020T434 1040Q520 1040 572 1015T654 945T693 845T702 727Q702 604 697 488T692 266Q692 188 697 122T717 -4H604L569 117H561Q530 64 471 25T311 -14Q200 -14
130 62T59 274Q59 362 89 421T173 518T302 570T469 586H510Q530 586 553 584Q559 647 559 696Q559 813 524 860T397 907Q340 907 273 890T160 846L111 963ZM555 467Q535 469 515 470T473 471Q424 471 377 463T293 435T235 379T213 291Q213 209 253 164T356 119Q442
119 489 160T555 250V467ZM389 1499H461L643 1126H514L449 1262L416 1380L381 1262L307 1126H186L389 1499Z" />
<glyph unicode="&#xe3;" glyph-name="atilde" horiz-adv-x="819" d="M111 963Q170 1000 255 1020T434 1040Q520 1040 572 1015T654 945T693 845T702 727Q702 604 697 488T692 266Q692 188 697 122T717 -4H604L569 117H561Q530 64 471 25T311 -14Q200 -14 130 62T59
274Q59 362 89 421T173 518T302 570T469 586H510Q530 586 553 584Q559 647 559 696Q559 813 524 860T397 907Q340 907 273 890T160 846L111 963ZM555 467Q535 469 515 470T473 471Q424 471 377 463T293 435T235 379T213 291Q213 209 253 164T356 119Q442 119 489
160T555 250V467ZM164 1337Q219 1407 262 1432T340 1458Q369 1458 393 1446T441 1420L486 1395Q508 1383 532 1382Q550 1382 570 1391T612 1425L659 1348Q610 1289 573 1266T502 1243Q473 1243 449 1254T401 1280T355 1305T307 1317Q284 1317 262 1306T213 1266L164
1337Z" />
<glyph unicode="&#xe4;" glyph-name="adieresis" horiz-adv-x="819" d="M111 963Q170 1000 255 1020T434 1040Q520 1040 572 1015T654 945T693 845T702 727Q702 604 697 488T692 266Q692 188 697 122T717 -4H604L569 117H561Q530 64 471 25T311 -14Q200 -14 130
62T59 274Q59 362 89 421T173 518T302 570T469 586H510Q530 586 553 584Q559 647 559 696Q559 813 524 860T397 907Q340 907 273 890T160 846L111 963ZM555 467Q535 469 515 470T473 471Q424 471 377 463T293 435T235 379T213 291Q213 209 253 164T356 119Q442
119 489 160T555 250V467ZM160 1337Q160 1384 183 1411T248 1438T312 1411T336 1337Q336 1294 313 1268T248 1241T184 1267T160 1337ZM485 1337Q485 1384 508 1411T573 1438T638 1411T662 1337Q662 1294 638 1268T573 1241T509 1267T485 1337Z" />
<glyph unicode="&#xe5;" glyph-name="aring" horiz-adv-x="819" d="M111 963Q170 1000 255 1020T434 1040Q520 1040 572 1015T654 945T693 845T702 727Q702 604 697 488T692 266Q692 188 697 122T717 -4H604L569 117H561Q530 64 471 25T311 -14Q200 -14 130 62T59
274Q59 362 89 421T173 518T302 570T469 586H510Q530 586 553 584Q559 647 559 696Q559 813 524 860T397 907Q340 907 273 890T160 846L111 963ZM555 467Q535 469 515 470T473 471Q424 471 377 463T293 435T235 379T213 291Q213 209 253 164T356 119Q442 119 489
160T555 250V467ZM242 1317Q242 1403 287 1451T410 1499Q484 1499 532 1456T580 1317Q580 1235 534 1186T410 1137T287 1183T242 1317ZM340 1317Q340 1270 360 1247T410 1223Q443 1223 462 1245T481 1317T460 1389T410 1413T361 1391T340 1317Z" />
<glyph unicode="&#xe6;" glyph-name="ae" horiz-adv-x="1314" d="M915 915Q823 915 768 842T702 612H1087Q1091 766 1045 840T915 915ZM602 150Q561 78 491 31T315 -16Q200 -16 130 63T59 279Q59 369 89 429T172 525T299 576T463 592Q486 592 508 591T553 588Q559
651 559 700Q559 817 524 863T397 909Q340 909 271 889T154 836L109 950Q172 997 257 1018T434 1040Q606 1040 657 909Q698 983 771 1016T915 1049Q972 1049 1028 1034T1130 974T1203 851T1231 647Q1231 612 1228 574T1221 492H702Q704 304 759 207T954 109Q1011
109 1066 129T1151 174L1204 66Q1153 25 1080 0T915 -25Q813 -25 733 19T614 150H602ZM354 117Q397 117 431 130T489 164T530 212T555 264V471Q535 473 515 474T473 475Q424 475 377 467T293 439T235 383T213 295Q213 223 252 170T354 117Z" />
<glyph unicode="&#xe7;" glyph-name="ccedilla" horiz-adv-x="729" d="M686 51Q645 20 596 3T494 -20L465 -88Q598 -119 598 -242Q598 -322 540 -374T383 -426Q342 -426 307 -418L322 -338Q369 -342 396 -336T438 -318T457 -290T461 -260Q461 -203 319 -184L391
-23Q305 -15 245 27T148 138T94 302T76 512Q76 774 169 911T436 1049Q516 1049 573 1035T672 997L631 870Q553 915 453 915Q342 915 286 818T229 512Q229 428 241 356T282 229T356 144T469 113Q522 113 568 130T643 172L686 51Z" />
<glyph unicode="&#xe8;" glyph-name="egrave" horiz-adv-x="845" d="M733 70Q684 25 608 0T449 -25Q353 -25 282 13T165 122T98 291T76 512Q76 774 172 911T444 1049Q501 1049 557 1035T659 977T732 856T760 653Q760 618 757 579T750 496H229Q229 408 243 336T288
214T367 137T487 109Q542 109 596 129T680 178L733 70ZM618 618Q622 772 575 843T446 915Q352 915 297 844T231 618H618ZM535 1169H451L258 1432V1475H428L535 1169Z" />
<glyph unicode="&#xe9;" glyph-name="eacute" horiz-adv-x="845" d="M733 70Q684 25 608 0T449 -25Q353 -25 282 13T165 122T98 291T76 512Q76 774 172 911T444 1049Q501 1049 557 1035T659 977T732 856T760 653Q760 618 757 579T750 496H229Q229 408 243 336T288
214T367 137T487 109Q542 109 596 129T680 178L733 70ZM618 618Q622 772 575 843T446 915Q352 915 297 844T231 618H618ZM475 1475H635V1432L467 1169H379L475 1475Z" />
<glyph unicode="&#xea;" glyph-name="ecircumflex" horiz-adv-x="845" d="M733 70Q684 25 608 0T449 -25Q353 -25 282 13T165 122T98 291T76 512Q76 774 172 911T444 1049Q501 1049 557 1035T659 977T732 856T760 653Q760 618 757 579T750 496H229Q229 408 243
336T288 214T367 137T487 109Q542 109 596 129T680 178L733 70ZM618 618Q622 772 575 843T446 915Q352 915 297 844T231 618H618ZM403 1499H475L657 1126H528L463 1262L430 1380L395 1262L322 1126H201L403 1499Z" />
<glyph unicode="&#xeb;" glyph-name="edieresis" horiz-adv-x="845" d="M733 70Q684 25 608 0T449 -25Q353 -25 282 13T165 122T98 291T76 512Q76 774 172 911T444 1049Q501 1049 557 1035T659 977T732 856T760 653Q760 618 757 579T750 496H229Q229 408 243 336T288
214T367 137T487 109Q542 109 596 129T680 178L733 70ZM618 618Q622 772 575 843T446 915Q352 915 297 844T231 618H618ZM190 1337Q190 1384 214 1411T278 1438T343 1411T367 1337Q367 1294 343 1268T279 1241T214 1267T190 1337ZM516 1337Q516 1384 539 1411T604
1438T668 1411T692 1337Q692 1294 669 1268T604 1241T540 1267T516 1337Z" />
<glyph unicode="&#xec;" glyph-name="igrave" horiz-adv-x="444" d="M147 1024H295V0H147V1024ZM287 1169H203L10 1432V1475H180L287 1169Z" />
<glyph unicode="&#xed;" glyph-name="iacute" horiz-adv-x="444" d="M147 1024H295V0H147V1024ZM252 1475H412V1432L244 1169H156L252 1475Z" />
<glyph unicode="&#xee;" glyph-name="icircumflex" horiz-adv-x="444" d="M147 1024H295V0H147V1024ZM193 1499H264L446 1126H317L252 1262L219 1380L184 1262L111 1126H-10L193 1499Z" />
<glyph unicode="&#xef;" glyph-name="idieresis" horiz-adv-x="444" d="M147 1024H295V0H147V1024ZM-31 1337Q-31 1384 -8 1411T57 1438T121 1411T145 1337Q145 1294 122 1268T57 1241T-7 1267T-31 1337ZM295 1337Q295 1384 318 1411T383 1438T447 1411T471 1337Q471
1294 448 1268T383 1241T319 1267T295 1337Z" />
<glyph unicode="&#xf1;" glyph-name="ntilde" horiz-adv-x="899" d="M645 0V625Q645 779 609 847T481 915Q399 915 346 866T268 745V0H121V1024H227L254 915H260Q299 970 365 1009T524 1049Q590 1049 640 1031T724 968T775 850T793 664V0H645ZM205 1337Q260 1407
303 1432T381 1458Q410 1458 434 1446T482 1420L527 1395Q549 1383 573 1382Q591 1382 611 1391T653 1425L700 1348Q651 1289 613 1266T543 1243Q514 1243 490 1254T442 1280T396 1305T348 1317Q325 1317 303 1306T254 1266L205 1337Z" />
<glyph unicode="&#xf2;" glyph-name="ograve" horiz-adv-x="884" d="M76 512Q76 788 171 918T442 1049Q630 1049 719 916T809 512Q809 233 713 104T442 -25Q254 -25 165 108T76 512ZM229 512Q229 422 240 348T277 221T344 139T442 109Q548 109 601 204T655 512Q655
600 644 675T608 803T541 885T442 915Q338 915 284 819T229 512ZM520 1169H436L244 1432V1475H414L520 1169Z" />
<glyph unicode="&#xf3;" glyph-name="oacute" horiz-adv-x="884" d="M76 512Q76 788 171 918T442 1049Q630 1049 719 916T809 512Q809 233 713 104T442 -25Q254 -25 165 108T76 512ZM229 512Q229 422 240 348T277 221T344 139T442 109Q548 109 601 204T655 512Q655
600 644 675T608 803T541 885T442 915Q338 915 284 819T229 512ZM465 1475H625V1432L457 1169H369L465 1475Z" />
<glyph unicode="&#xf4;" glyph-name="ocircumflex" horiz-adv-x="884" d="M76 512Q76 788 171 918T442 1049Q630 1049 719 916T809 512Q809 233 713 104T442 -25Q254 -25 165 108T76 512ZM229 512Q229 422 240 348T277 221T344 139T442 109Q548 109 601 204T655
512Q655 600 644 675T608 803T541 885T442 915Q338 915 284 819T229 512ZM422 1499H494L676 1126H547L481 1262L449 1380L414 1262L340 1126H219L422 1499Z" />
<glyph unicode="&#xf5;" glyph-name="otilde" horiz-adv-x="884" d="M76 512Q76 788 171 918T442 1049Q630 1049 719 916T809 512Q809 233 713 104T442 -25Q254 -25 165 108T76 512ZM229 512Q229 422 240 348T277 221T344 139T442 109Q548 109 601 204T655 512Q655
600 644 675T608 803T541 885T442 915Q338 915 284 819T229 512ZM197 1337Q252 1407 295 1432T373 1458Q402 1458 426 1446T474 1420L519 1395Q541 1383 565 1382Q583 1382 603 1391T645 1425L692 1348Q643 1289 605 1266T535 1243Q506 1243 482 1254T434 1280T388
1305T340 1317Q317 1317 295 1306T246 1266L197 1337Z" />
<glyph unicode="&#xf6;" glyph-name="odieresis" horiz-adv-x="884" d="M76 512Q76 788 171 918T442 1049Q630 1049 719 916T809 512Q809 233 713 104T442 -25Q254 -25 165 108T76 512ZM229 512Q229 422 240 348T277 221T344 139T442 109Q548 109 601 204T655
512Q655 600 644 675T608 803T541 885T442 915Q338 915 284 819T229 512ZM188 1337Q188 1384 212 1411T276 1438T341 1411T365 1337Q365 1294 341 1268T277 1241T212 1267T188 1337ZM514 1337Q514 1384 537 1411T602 1438T666 1411T690 1337Q690 1294 667 1268T602
1241T538 1267T514 1337Z" />
<glyph unicode="&#xf7;" glyph-name="divide" horiz-adv-x="849" d="M72 764H776V627H72V764ZM326 1044Q326 1101 353 1130T428 1159T502 1131T530 1044Q530 985 503 957T428 928T354 956T326 1044ZM326 348Q326 405 353 434T428 463T502 435T530 348Q530 289
503 260T428 231T354 260T326 348Z" />
<glyph unicode="&#xf8;" glyph-name="oslash" horiz-adv-x="892" d="M82 512Q82 780 177 914T449 1049Q568 1049 649 989L688 1055L788 993L733 895Q774 827 794 731T815 512Q815 240 720 108T449 -25Q322 -25 238 41L195 -29L94 37L156 141Q82 276 82 512ZM662
512Q662 578 657 636T637 741L309 178Q362 108 449 109Q555 109 608 205T662 512ZM236 512Q236 451 240 396T256 293L578 856Q553 885 521 900T449 915Q345 915 291 819T236 512Z" />
<glyph unicode="&#xf9;" glyph-name="ugrave" horiz-adv-x="888" d="M254 1024V397Q254 241 285 175T401 109Q444 109 478 126T538 172T585 237T618 313V1024H766V291Q766 217 771 138T786 0H682L645 143H639Q604 75 539 25T375 -25Q309 -25 260 -9T176 51T124
169T106 360V1024H254ZM510 1169H426L233 1432V1475H403L510 1169Z" />
<glyph unicode="&#xfa;" glyph-name="uacute" horiz-adv-x="888" d="M254 1024V397Q254 241 285 175T401 109Q444 109 478 126T538 172T585 237T618 313V1024H766V291Q766 217 771 138T786 0H682L645 143H639Q604 75 539 25T375 -25Q309 -25 260 -9T176 51T124
169T106 360V1024H254ZM463 1475H623V1432L455 1169H367L463 1475Z" />
<glyph unicode="&#xfb;" glyph-name="ucircumflex" horiz-adv-x="888" d="M254 1024V397Q254 241 285 175T401 109Q444 109 478 126T538 172T585 237T618 313V1024H766V291Q766 217 771 138T786 0H682L645 143H639Q604 75 539 25T375 -25Q309 -25 260 -9T176 51T124
169T106 360V1024H254ZM416 1499H487L670 1126H541L475 1262L442 1380L408 1262L334 1126H213L416 1499Z" />
<glyph unicode="&#xfc;" glyph-name="udieresis" horiz-adv-x="888" d="M254 1024V397Q254 241 285 175T401 109Q444 109 478 126T538 172T585 237T618 313V1024H766V291Q766 217 771 138T786 0H682L645 143H639Q604 75 539 25T375 -25Q309 -25 260 -9T176 51T124
169T106 360V1024H254ZM186 1337Q186 1384 209 1411T274 1438T338 1411T362 1337Q362 1294 339 1268T274 1241T210 1267T186 1337ZM512 1337Q512 1384 535 1411T600 1438T664 1411T688 1337Q688 1294 665 1268T600 1241T536 1267T512 1337Z" />
<glyph unicode="&#xff;" glyph-name="ydieresis" horiz-adv-x="770" d="M375 362L418 164H428L459 362L614 1024H764L520 104Q491 -7 463 -103T401 -269T325 -380T226 -420T125 -401L150 -262Q179 -272 207 -266T261 -232T308 -147T346 0L14 1024H182L375 362ZM135
1337Q135 1384 158 1411T223 1438T287 1411T311 1337Q311 1294 288 1268T223 1241T159 1267T135 1337ZM461 1337Q461 1384 484 1411T549 1438T613 1411T637 1337Q637 1294 614 1268T549 1241T485 1267T461 1337Z" />
<glyph unicode="&#x131;" glyph-name="dotlessi" horiz-adv-x="444" d="M147 1024H295V0H147V1024Z" />
<glyph unicode="&#x152;" glyph-name="OE" horiz-adv-x="1531" d="M784 1276Q739 1299 682 1308T563 1317Q413 1317 332 1170T250 717Q250 596 267 488T323 297T423 166T573 117Q620 117 669 121T784 150V1276ZM784 0Q743 -10 686 -17T559 -25Q436 -25 347 27T201
177T116 410T88 717Q88 1079 208 1268T559 1458Q633 1458 683 1451T784 1434H1421V1292H938V807H1380V666H938V141H1432V0H784Z" />
<glyph unicode="&#x153;" glyph-name="oe" horiz-adv-x="1417" d="M229 512Q229 432 240 360T277 232T344 143T442 109Q653 109 653 512Q653 592 642 664T607 793T541 882T442 915Q229 915 229 512ZM727 154Q639 -24 440 -25Q254 -25 165 114T76 512Q76 774 171
911T442 1049Q546 1049 617 1003T729 872Q770 950 842 999T1016 1049Q1073 1049 1129 1034T1231 975T1303 854T1331 651Q1331 616 1328 578T1321 496H797Q799 318 859 212T1059 106Q1114 106 1171 129T1257 180L1311 72Q1262 25 1183 0T1018 -25Q916 -25 842 24T727
154ZM1016 918Q924 918 868 844T801 616H1190Q1194 770 1147 844T1016 918Z" />
<glyph unicode="&#x178;" glyph-name="Ydieresis" horiz-adv-x="931" d="M539 1583T539 1626T564 1695T633 1722Q678 1722 703 1696T729 1626T704 1558T633 1532Q590 1532 565 1557ZM215 1583T215 1626T240 1695T311 1722Q354 1722 380 1696T406 1626T380 1558T311
1532Q266 1532 241 1557ZM391 569L10 1434H190L449 809L475 684H479L506 813L756 1434H922L545 571V0H391V569Z" />
<glyph unicode="&#x192;" glyph-name="florin" horiz-adv-x="972" d="M557 891L430 -70Q420 -146 402 -210T353 -322T277 -398T168 -426Q119 -426 61 -415T-39 -383L2 -258Q39 -274 72 -283T147 -293Q208 -293 241 -219T295 16L403 891H266V1024H424L442 1161Q462
1311 514 1384T690 1458Q745 1458 801 1447T901 1415L860 1292Q786 1325 713 1325Q652 1325 627 1273T588 1108L578 1024H776V891H557Z" />
<glyph unicode="&#x2c6;" glyph-name="circumflex" horiz-adv-x="702" d="M326 1499H397L580 1126H451L385 1262L352 1380L317 1262L244 1126H123L326 1499Z" />
<glyph unicode="&#x2c7;" glyph-name="caron" horiz-adv-x="716" d="M391 1126H313L123 1499H262L326 1364L360 1245L395 1364L469 1499H594L391 1126Z" />
<glyph unicode="&#x2d8;" glyph-name="breve" horiz-adv-x="759" d="M203 1468Q232 1394 281 1351T389 1307Q446 1307 490 1350T561 1468L637 1438Q633 1385 612 1337T557 1253T480 1196T387 1174Q291 1174 218 1241T123 1432L203 1468Z" />
<glyph unicode="&#x2d9;" glyph-name="dotaccent" horiz-adv-x="450" d="M123 1335Q123 1384 150 1415T223 1446T298 1416T328 1335Q328 1286 298 1259T223 1231T151 1259T123 1335Z" />
<glyph unicode="&#x2da;" glyph-name="ring" horiz-adv-x="583" d="M123 1317Q123 1403 168 1451T291 1499Q365 1499 413 1456T461 1317Q461 1235 415 1186T291 1137T168 1183T123 1317ZM221 1317Q221 1270 241 1247T291 1223Q324 1223 343 1245T362 1317T341
1389T291 1413T242 1391T221 1317Z" />
<glyph unicode="&#x2db;" glyph-name="ogonek" horiz-adv-x="569" d="M399 20Q340 -13 305 -63T270 -178Q272 -237 311 -269T426 -270L446 -352Q423 -375 382 -387T301 -399Q219 -399 171 -350T123 -223Q123 -135 173 -75T301 20H399Z" />
<glyph unicode="&#x2dc;" glyph-name="tilde" horiz-adv-x="741" d="M123 1337Q178 1407 221 1432T299 1458Q328 1458 352 1446T400 1420L445 1395Q467 1383 492 1382Q510 1382 529 1391T571 1425L618 1348Q569 1289 532 1266T461 1243Q432 1243 408 1254T360
1280T314 1305T266 1317Q243 1317 221 1306T172 1266L123 1337Z" />
<glyph unicode="&#x2dd;" glyph-name="hungarumlaut" horiz-adv-x="708" d="M180 1434H322V1401L203 1169H123L180 1434ZM432 1434H586V1401L397 1169H311L432 1434Z" />
<glyph unicode="&#x3a9;" glyph-name="Omega" horiz-adv-x="1310" d="M119 133H305L459 113V168L371 188Q320 219 274 274T194 404T140 571T119 770Q119 932 157 1059T264 1275T432 1411T653 1458Q782 1458 882 1407T1051 1264T1156 1043T1192 762Q1192 651 1170
560T1111 397T1030 273T942 190L850 168V113L1006 133H1192V0H715V238Q762 250 817 284T919 384T998 545T1030 772Q1030 870 1009 968T941 1144T825 1269T653 1317Q473 1317 377 1177T281 766Q281 637 310 543T385 384T485 284T594 238V0H119V133Z" />
<glyph unicode="&#x3c0;" glyph-name="pi" horiz-adv-x="1095" d="M862 229Q862 172 877 149T915 125Q931 125 952 130T987 139L1020 31Q991 19 950 6T856 -8Q772 -8 744 51T715 217V891H418V0H270V891H244Q183 891 137 807L49 877Q82 951 133 987T272 1024H999V891H862V229Z"
/>
<glyph unicode="&#x2013;" glyph-name="endash" horiz-adv-x="1085" d="M190 659H895V518H190V659Z" />
<glyph unicode="&#x2014;" glyph-name="emdash" horiz-adv-x="1355" d="M195 659H1161V518H195V659Z" />
<glyph unicode="&#x2018;" glyph-name="quoteleft" horiz-adv-x="331" d="M266 1317T266 1270T241 1195T174 1167Q127 1167 95 1202T63 1309Q63 1377 80 1426T122 1509T173 1564T217 1595L264 1528Q229 1503 204 1462T180 1366Q219 1372 242 1345Z" />
<glyph unicode="&#x2019;" glyph-name="quoteright" horiz-adv-x="331" d="M63 1350Q63 1397 90 1423T158 1450Q207 1450 237 1416T268 1313Q268 1247 252 1198T212 1115T162 1060T117 1028L70 1090Q105 1113 130 1154T154 1251Q117 1245 90 1272T63 1350Z" />
<glyph unicode="&#x201a;" glyph-name="quotesinglbase" horiz-adv-x="331" d="M63 102Q63 149 90 176T158 203Q207 203 237 169T268 66Q268 0 252 -49T212 -132T162 -187T117 -219L70 -158Q105 -135 130 -93T154 4Q117 -2 90 24T63 102Z" />
<glyph unicode="&#x201c;" glyph-name="quotedblleft" horiz-adv-x="589" d="M524 1317T524 1270T499 1195T432 1167Q385 1167 354 1202T322 1309Q322 1377 339 1426T381 1509T431 1564T475 1595L522 1528Q487 1503 462 1462T438 1366Q477 1372 500 1345ZM266
1317T266 1270T241 1195T174 1167Q127 1167 95 1202T63 1309Q63 1377 80 1426T122 1509T173 1564T217 1595L264 1528Q229 1503 204 1462T180 1366Q219 1372 242 1345Z" />
<glyph unicode="&#x201d;" glyph-name="quotedblright" horiz-adv-x="589" d="M322 1350Q322 1397 348 1423T416 1450Q465 1450 495 1416T526 1313Q526 1247 510 1198T470 1115T420 1060T375 1028L328 1090Q363 1113 388 1154T412 1251Q375 1245 349 1272T322
1350ZM63 1350Q63 1397 90 1423T158 1450Q207 1450 237 1416T268 1313Q268 1247 252 1198T212 1115T162 1060T117 1028L70 1090Q105 1113 130 1154T154 1251Q117 1245 90 1272T63 1350Z" />
<glyph unicode="&#x201e;" glyph-name="quotedblbase" horiz-adv-x="589" d="M322 102Q322 149 348 176T416 203Q465 203 495 169T526 66Q526 0 510 -49T470 -132T420 -187T375 -219L328 -158Q363 -135 388 -93T412 4Q375 -2 349 24T322 102ZM63 102Q63 149 90
176T158 203Q207 203 237 169T268 66Q268 0 252 -49T212 -132T162 -187T117 -219L70 -158Q105 -135 130 -93T154 4Q117 -2 90 24T63 102Z" />
<glyph unicode="&#x2020;" glyph-name="dagger" horiz-adv-x="806" d="M66 1022H276L350 999L330 1096V1434H477V1096L457 999L530 1022H741V889H528L457 911L477 823V0L451 -410H354L330 2V823L350 911L276 889H66V1022Z" />
<glyph unicode="&#x2021;" glyph-name="daggerdbl" horiz-adv-x="806" d="M330 825L350 911L276 889H66V1022H276L350 999L330 1094V1434H477V1094L457 999L530 1022H741V889H528L457 911L477 825V559L457 473L528 496H741V362H530L457 385L477 291V0L451 -410H356L330
2V291L350 385L276 362H66V496H276L350 473L330 559V825Z" />
<glyph unicode="&#x2022;" glyph-name="bullet" horiz-adv-x="743" d="M139 637Q139 766 203 844T373 922Q475 922 540 847T606 637T541 427T373 352Q269 352 204 427T139 637Z" />
<glyph unicode="&#x2026;" glyph-name="ellipsis" horiz-adv-x="1345" d="M1040 92Q1040 149 1068 178T1143 207T1217 179T1245 92Q1245 33 1218 4T1143 -25T1068 4T1040 92ZM582 92Q582 149 609 178T684 207T758 179T786 92Q786 33 759 4T684 -25T610 4T582 92ZM125
92Q125 149 152 178T227 207T302 179T330 92Q330 33 302 4T227 -25T153 4T125 92Z" />
<glyph unicode="&#x2030;" glyph-name="perthousand" horiz-adv-x="1941" d="M1067 1460L1163 1399L291 -25L195 37L1067 1460ZM113 1110Q113 1204 132 1270T187 1379T271 1439T374 1458T478 1441T562 1383T617 1276T637 1110T618 945T562 837T478 780T375 762T271
779T188 837T133 944T113 1110ZM246 1110Q246 977 281 926T375 874Q404 874 427 884T467 920T492 992T502 1110Q502 1180 493 1226T467 1298T427 1335T375 1346Q344 1346 321 1336T281 1299T255 1226T246 1110ZM723 350Q723 444 742 511T798 620T882 680T985 698T1088
681T1172 624T1227 517T1247 351T1228 185T1173 77T1089 20T985 2T882 19T798 77T743 184T723 350ZM856 350Q856 217 892 166T985 115Q1014 115 1037 125T1077 160T1103 232T1112 350Q1112 420 1103 466T1078 538T1038 575T985 586Q954 586 931 576T891 539T865
466T856 350ZM1329 350Q1329 444 1348 511T1404 620T1488 680T1591 698T1695 681T1779 624T1834 517T1853 351T1834 185T1779 77T1695 20T1592 2T1488 19T1404 77T1349 184T1329 350ZM1462 350Q1462 217 1498 166T1591 115Q1620 115 1643 125T1683 160T1709 232T1718
350Q1718 420 1709 466T1684 538T1644 575T1591 586Q1560 586 1537 576T1497 539T1472 466T1462 350Z" />
<glyph unicode="&#x2039;" glyph-name="guilsinglleft" horiz-adv-x="493" d="M59 530L324 1001L426 934L258 616L180 532L258 459L436 147L334 78L59 530Z" />
<glyph unicode="&#x203a;" glyph-name="guilsinglright" horiz-adv-x="495" d="M434 549L172 78L70 145L236 463L315 547L236 621L57 930L162 1001L434 549Z" />
<glyph unicode="&#x2044;" glyph-name="fraction" horiz-adv-x="305" d="M498 1460L598 1405L-188 -25L-291 33L498 1460Z" />
<glyph unicode="&#x20ac;" glyph-name="Euro" horiz-adv-x="972" d="M84 940H184Q204 1077 247 1175T352 1336T488 1428T647 1458T791 1447T899 1413L858 1278Q819 1296 770 1306T651 1317Q596 1317 547 1297T457 1232T385 1116T338 940H795L766 813H326Q324 790
324 766V717V678Q324 660 326 641H731L700 514H336Q365 311 451 214T672 117Q801 117 881 174L915 51Q866 10 793 -7T643 -25Q455 -25 334 104T180 514H49L84 641H170V717V766Q170 791 172 813H49L84 940Z" />
<glyph unicode="&#x2122;" glyph-name="trademark" horiz-adv-x="1497" d="M653 1300H436V696H289V1300H72V1434H653V1300ZM1288 1038L1309 1249H1300L1237 1075L1100 788H1030L891 1073L831 1249H823L850 1040V696H717V1434H862L1030 1092L1075 973L1124 1096L1278
1434H1425V696H1288V1038Z" />
<glyph unicode="&#x2202;" glyph-name="partialdiff" horiz-adv-x="851" d="M477 1044Q543 1044 577 1030T641 989H649Q643 1089 607 1157T518 1265T402 1319T276 1329L303 1458Q418 1460 510 1431T667 1328T768 1136T803 836Q803 609 770 446T679 179T541 25T365
-25Q205 -25 122 79T39 377Q39 510 66 631T149 844T286 990T477 1044ZM473 911Q416 911 365 875T276 767T216 595T193 365Q193 316 203 270T235 188T293 131T377 109Q457 109 509 174T592 344T636 577T649 829Q618 868 579 889T473 911Z" />
<glyph unicode="&#x2206;" glyph-name="uni2206" horiz-adv-x="940" d="M186 133H754L506 956L469 1190H463L420 952L186 133ZM23 0V76L434 1456H506L924 76V0H23Z" />
<glyph unicode="&#x220f;" glyph-name="product" horiz-adv-x="1107" d="M823 1292H285V-410H131V1434H977V-410H823V1292Z" />
<glyph unicode="&#x2211;" glyph-name="summation" horiz-adv-x="849" d="M229 -195L164 -268H791V-410H33V-268L395 451L453 512L393 578L33 1292V1434H791V1292H172L244 1219L588 524L229 -195Z" />
<glyph unicode="&#x221a;" glyph-name="radical" horiz-adv-x="849" d="M283 913L426 483L467 215H471L502 487L739 1434H877L504 -23H438L176 780H-12V913H283Z" />
<glyph unicode="&#x221e;" glyph-name="infinity" horiz-adv-x="1423" d="M702 586Q643 465 557 400T373 334Q314 334 262 359T170 434T109 553T86 709Q86 893 168 998T385 1104Q504 1104 587 1039T721 872Q793 997 880 1050T1067 1104Q1188 1104 1262 1006T1337
731Q1337 543 1254 439T1036 334Q977 334 927 354T836 409T761 489T702 586ZM1038 467Q1106 467 1150 539T1194 727Q1194 772 1185 816T1158 894T1108 949T1034 971Q966 971 900 915T776 760Q796 705 823 653T884 558T956 492T1038 467ZM387 971Q352 971 324 951T274
894T241 812T229 715T240 619T274 540T329 487T403 467Q440 467 474 487T539 539T599 612T649 696Q626 753 599 803T540 891T469 949T387 971Z" />
<glyph unicode="&#x222b;" glyph-name="integral'" horiz-adv-x="581" d="M365 -119Q365 -279 308 -352T131 -426Q70 -426 16 -415T-78 -385L-39 -260Q35 -293 106 -293Q172 -293 194 -244T217 -72V1151Q217 1311 271 1384T449 1458Q506 1458 559 1447T653 1417L614
1294Q579 1310 545 1317T469 1325Q408 1325 387 1277T365 1108V-119Z" />
<glyph unicode="&#x2248;" glyph-name="approxequal" horiz-adv-x="856" d="M49 909Q123 977 182 1003T293 1030Q340 1030 381 1013T459 976L531 939Q567 922 604 922Q633 922 665 936T733 989L803 866Q737 811 686 790T592 768Q547 768 509 785T435 824T364 863T289
881Q252 881 210 861T117 788L49 909ZM49 569Q123 637 182 663T293 690Q340 690 381 673T459 636L531 599Q567 582 604 582Q633 582 665 596T733 649L803 526Q737 471 686 450T592 428Q547 428 509 445T435 484T364 523T289 541Q252 541 210 521T117 449L49 569Z"
/>
<glyph unicode="&#x2260;" glyph-name="notequal" horiz-adv-x="843" d="M68 934H438L539 1217H674L571 934H772V797H522L449 594H772V457H399L285 135H154L268 457H68V594H317L389 797H68V934Z" />
<glyph unicode="&#x2264;" glyph-name="lessequal" horiz-adv-x="849" d="M768 168L690 55L94 473L172 586L768 168ZM66 872V932L680 1389L760 1278L369 981L217 903L367 838L768 543L690 432L66 872Z" />
<glyph unicode="&#x2265;" glyph-name="greaterequal" horiz-adv-x="849" d="M762 479L168 55L86 166L682 590L762 479ZM770 948V889L156 432L76 543L467 840L618 918L469 983L68 1278L145 1389L770 948Z" />
<glyph unicode="&#x25ca;" glyph-name="lozenge" horiz-adv-x="849" d="M455 -23H387L59 700L387 1456H455L788 711L455 -23ZM477 336L639 690L465 1083L420 1268H416L371 1079L209 723L383 332L430 145H432L477 336Z" />
<glyph unicode="&#xfb01;" glyph-name="uniFB01" horiz-adv-x="894" d="M770 1024V0H623V891H305V0H158V891H33V1024H158V1081Q158 1274 235 1361T463 1448Q563 1448 638 1429T760 1384L713 1262Q664 1291 604 1303T477 1315Q420 1315 386 1296T334 1238T310 1146T305
1024H770Z" />
<glyph unicode="&#xfb02;" glyph-name="uniFB02" horiz-adv-x="960" d="M614 1309Q592 1313 548 1319T461 1325Q408 1325 377 1305T330 1246T309 1152T305 1024H467V891H305V0H158V891H33V1024H158V1081Q158 1274 226 1366T457 1458Q490 1458 534 1455T621 1447T701
1436T762 1421V233Q762 165 781 137T836 109Q881 109 938 131L948 12Q921 -4 875 -14T786 -25Q708 -25 661 24T614 193V1309Z" />
</font>
</defs>
</svg>
